<svg width="1200" height="1200" viewBox="0 0 1200 1200" fill="none" xmlns="http://www.w3.org/2000/svg">
<path d="M569.13 95.0784C569.618 86.6139 576.625 80 585.104 80H614.896C623.375 80 630.382 86.6139 630.87 95.0785L660 600L630.87 1104.92C630.382 1113.39 623.375 1120 614.896 1120H585.104C576.625 1120 569.618 1113.39 569.13 1104.92L540 600L569.13 95.0784Z" fill="#E11D48"/>
<path d="M329.642 371.25C324.201 364.902 324.565 355.435 330.477 349.523L349.512 330.488C355.429 324.571 364.904 324.212 371.251 329.664L639.078 559.708C639.692 560.235 640.265 560.808 640.792 561.422L870.339 828.749C875.789 835.096 875.43 844.57 869.514 850.486L850.477 869.523C844.565 875.435 835.098 875.799 828.75 870.358L560.934 640.801C560.312 640.268 559.732 639.688 559.199 639.066L329.642 371.25Z" fill="#E11D48"/>
<path d="M828.75 329.892C835.098 324.451 844.565 324.815 850.477 330.727L869.512 349.762C875.429 355.679 875.788 365.154 870.336 371.501L640.292 639.328C639.765 639.942 639.192 640.515 638.578 641.042L371.251 870.589C364.904 876.039 355.43 875.68 349.514 869.764L330.477 850.727C324.565 844.815 324.201 835.348 329.642 829L559.199 561.184C559.732 560.562 560.312 559.982 560.934 559.449L828.75 329.892Z" fill="#E11D48"/>
<path d="M160 584.856C160 576.441 166.519 569.463 174.915 568.893L600 540L1025.09 568.893C1033.48 569.463 1040 576.441 1040 584.856V614.783C1040 623.193 1033.49 630.168 1025.1 630.745L600 660L174.901 630.745C166.511 630.168 160 623.193 160 614.783V584.856Z" fill="#E11D48"/>
</svg>
